<svg width="17" height="17" viewBox="0 0 17 17" fill="none" xmlns="http://www.w3.org/2000/svg">
<path fill-rule="evenodd" clip-rule="evenodd" d="M6.99997 0C3.134 0 0 3.134 0 6.99997C0 10.866 3.134 13.9999 6.99997 13.9999C8.5723 13.9999 10.0236 13.4815 11.1921 12.6063L15.2929 16.7071C15.6834 17.0976 16.3166 17.0976 16.7071 16.7071C17.0976 16.3166 17.0976 15.6834 16.7071 15.2929L12.6063 11.1921C13.4815 10.0236 13.9999 8.5723 13.9999 6.99997C13.9999 3.134 10.866 0 6.99997 0ZM1.99999 6.99997C1.99999 4.23856 4.23856 1.99999 6.99997 1.99999C9.76139 1.99999 12 4.23856 12 6.99997C12 9.76139 9.76139 12 6.99997 12C4.23856 12 1.99999 9.76139 1.99999 6.99997Z" fill="#010101"/>
</svg>
