<svg width="13" height="9" viewBox="0 0 13 9" fill="none" xmlns="http://www.w3.org/2000/svg">
<path d="M7.80001 2.49597C7.80001 1.69349 8.0083 0.942681 8.36935 0.303328C7.80559 0.60623 7.17104 0.77728 6.50001 0.77728C5.62965 0.77728 4.82006 0.490615 4.14761 0C3.31613 0.348631 2.55335 0.884071 1.90384 1.58662C0.676119 2.91462 0 4.68022 0 6.55828V8.12074C0 8.37962 0.194016 8.58947 0.43333 8.58947H12.5667C12.806 8.58947 13 8.37963 13 8.12074V6.55828C13 6.53012 12.9993 6.50186 12.999 6.47367C12.5924 6.62946 12.1553 6.71456 11.7 6.71456C9.54954 6.71456 7.79999 4.82211 7.79999 2.49597H7.80001Z" fill="#686A8A"/>
</svg>
