<svg width="20" height="20" viewBox="0 0 20 20" fill="none" xmlns="http://www.w3.org/2000/svg">
<path d="M10 0C4.47715 0 0 4.47715 0 10C0 15.5229 4.47715 20 10 20C15.5229 20 20 15.5229 20 10C20 4.47715 15.5229 0 10 0ZM5.61794 7.59425C5.56589 7.93548 5.24708 8.1699 4.90584 8.11785C4.56461 8.0658 4.33019 7.74699 4.38224 7.40575C4.54138 6.36245 5.48944 5.625 6.55999 5.625C7.63054 5.625 8.5786 6.36245 8.73774 7.40575C8.78979 7.74699 8.55536 8.0658 8.21414 8.11785C7.8729 8.1699 7.55409 7.93548 7.50204 7.59425C7.44565 7.22458 7.07905 6.875 6.55999 6.875C6.04093 6.875 5.67432 7.22458 5.61794 7.59425ZM12.493 7.59425C12.4409 7.93548 12.1221 8.1699 11.7809 8.11785C11.4396 8.0658 11.2051 7.74699 11.2572 7.40575C11.4164 6.36245 12.3645 5.625 13.435 5.625C14.5055 5.625 15.4536 6.36245 15.6128 7.40575C15.6648 7.74699 15.4304 8.0658 15.0891 8.11785C14.7479 8.1699 14.4291 7.93548 14.377 7.59425C14.3206 7.22458 13.954 6.875 13.435 6.875C12.9159 6.875 12.5494 7.22458 12.493 7.59425ZM4.3692 10.625H15.6193C15.3505 13.375 13.208 15.625 9.9942 15.625C6.78035 15.625 4.6378 13.375 4.3692 10.625Z" fill="#212121"/>
</svg>
