<svg width="20" height="17" viewBox="0 0 20 17" fill="none" xmlns="http://www.w3.org/2000/svg">
<path fill-rule="evenodd" clip-rule="evenodd" d="M5.39729 2.5867C5.4617 2.49716 5.53323 2.38755 5.62445 2.23975C5.67557 2.15692 5.86206 1.84842 5.89255 1.79856C6.64617 0.565807 7.194 0 8.18182 0H11.8182C12.806 0 13.3538 0.565807 14.1075 1.79856C14.1379 1.84842 14.3244 2.15692 14.3756 2.23975C14.4668 2.38755 14.5383 2.49716 14.6027 2.5867C14.6452 2.64575 14.6823 2.69267 14.7125 2.72727H17.2727C18.779 2.72727 20 3.94831 20 5.45455V13.6364C20 15.1426 18.779 16.3636 17.2727 16.3636H2.72727C1.22104 16.3636 0 15.1426 0 13.6364V5.45455C0 3.94831 1.22104 2.72727 2.72727 2.72727H5.28745C5.31772 2.69267 5.35482 2.64575 5.39729 2.5867ZM2.72727 4.54545C2.2252 4.54545 1.81818 4.95247 1.81818 5.45455V13.6364C1.81818 14.1384 2.2252 14.5455 2.72727 14.5455H17.2727C17.7748 14.5455 18.1818 14.1384 18.1818 13.6364V5.45455C18.1818 4.95247 17.7748 4.54545 17.2727 4.54545H14.5455C13.9415 4.54545 13.5342 4.21492 13.1267 3.64841C13.033 3.51807 12.9401 3.37574 12.8283 3.19463C12.7719 3.10317 12.5826 2.79007 12.5562 2.7469C12.145 2.07429 11.897 1.81818 11.8182 1.81818H8.18182C8.10297 1.81818 7.855 2.07429 7.44382 2.7469C7.41742 2.79007 7.22815 3.10317 7.1717 3.19463C7.05993 3.37574 6.96704 3.51807 6.87329 3.64841C6.46579 4.21492 6.05849 4.54545 5.45455 4.54545H2.72727ZM16.3636 7.27273C16.8657 7.27273 17.2727 6.86571 17.2727 6.36364C17.2727 5.86156 16.8657 5.45455 16.3636 5.45455C15.8616 5.45455 15.4545 5.86156 15.4545 6.36364C15.4545 6.86571 15.8616 7.27273 16.3636 7.27273ZM10 13.6364C7.48961 13.6364 5.45455 11.6013 5.45455 9.09091C5.45455 6.58052 7.48961 4.54545 10 4.54545C12.5104 4.54545 14.5455 6.58052 14.5455 9.09091C14.5455 11.6013 12.5104 13.6364 10 13.6364ZM10 11.8182C11.5062 11.8182 12.7273 10.5971 12.7273 9.09091C12.7273 7.58468 11.5062 6.36364 10 6.36364C8.49377 6.36364 7.27273 7.58468 7.27273 9.09091C7.27273 10.5971 8.49377 11.8182 10 11.8182Z" fill="black"/>
</svg>
