<svg width="15" height="15" viewBox="0 0 15 15" fill="none" xmlns="http://www.w3.org/2000/svg">
<path d="M14.5175 10.6203C14.4765 10.5883 11.5 8.4785 10.683 8.62995C10.293 8.6978 10.07 8.95937 9.6225 9.48301C9.55051 9.56758 9.3775 9.77015 9.24301 9.91421C8.96021 9.82351 8.68434 9.71309 8.41751 9.58381C7.04026 8.92447 5.92749 7.83023 5.257 6.4759C5.12543 6.21355 5.01315 5.94227 4.921 5.66414C5.068 5.53139 5.27401 5.36127 5.36201 5.2885C5.892 4.85091 6.15851 4.63162 6.22751 4.24713C6.36901 3.45061 4.22501 0.503483 4.20251 0.476931C4.00553 0.200204 3.69256 0.0251234 3.35001 0C2.48101 0 0 3.16494 0 3.69791C0 3.72889 0.0455003 6.8776 3.994 10.8273C8.00652 14.7056 11.208 14.7504 11.2395 14.7504C11.782 14.7504 15 12.3106 15 11.4561C14.9748 11.1204 14.7976 10.8137 14.5175 10.6203Z" fill="#B8B8B8"/>
</svg>
