<svg width="12" height="12" viewBox="0 0 12 12" fill="none" xmlns="http://www.w3.org/2000/svg">
<path d="M7.3291 3.33636H8.66365V4.67091C8.66365 5.03791 8.96392 5.33818 9.33092 5.33818C9.69792 5.33818 9.99819 5.03791 9.99819 4.67091V3.33636H11.3327C11.6997 3.33636 12 3.03609 12 2.66909C12 2.30209 11.6997 2.00182 11.3327 2.00182H9.99819V0.667273C9.99819 0.300273 9.69792 0 9.33092 0C8.96392 0 8.66365 0.300273 8.66365 0.667273V2.00182H7.3291C6.9621 2.00182 6.66183 2.30209 6.66183 2.66909C6.66183 3.03609 6.9621 3.33636 7.3291 3.33636ZM10.8056 8.18743L9.11072 7.99392C8.70368 7.94722 8.30332 8.08734 8.01639 8.37427L6.78861 9.60205C4.90023 8.64118 3.35216 7.09978 2.39129 5.20473L3.62574 3.97027C3.91267 3.68334 4.0528 3.27631 4.00609 2.87594L3.81258 1.19442C3.73918 0.520473 3.16532 0.00667272 2.49138 0.00667272H1.337C0.582978 0.00667272 -0.0442579 0.633909 0.00245121 1.38793C0.356106 7.08643 4.91358 11.6372 10.6054 11.9909C11.3594 12.0376 11.9867 11.4104 11.9867 10.6563V9.50196C11.9933 8.83469 11.4795 8.26083 10.8056 8.18743Z" fill="white"/>
</svg>
