<svg width="15" height="15" viewBox="0 0 15 15" fill="none" xmlns="http://www.w3.org/2000/svg">
<path d="M14.5175 10.6202C14.4765 10.5883 11.5 8.47849 10.683 8.62993C10.293 8.69778 10.07 8.95935 9.62248 9.48299C9.55049 9.56756 9.37748 9.77013 9.24299 9.91419C8.96019 9.82349 8.68432 9.71307 8.41749 9.58379C7.04024 8.92445 5.92748 7.83021 5.25699 6.47589C5.12542 6.21354 5.01314 5.94226 4.92099 5.66413C5.06799 5.53138 5.274 5.36126 5.362 5.28849C5.89199 4.8509 6.15849 4.63161 6.2275 4.24712C6.369 3.4506 4.225 0.503482 4.2025 0.47693C4.00552 0.200203 3.69255 0.0251234 3.35 0C2.481 0 0 3.16493 0 3.69791C0 3.72888 0.0455001 6.87759 3.994 10.8272C8.0065 14.7056 11.208 14.7503 11.2395 14.7503C11.782 14.7503 15 12.3106 15 11.4561C14.9747 11.1204 14.7976 10.8136 14.5175 10.6202L14.5175 10.6202Z" fill="#B8B8B8"/>
</svg>
